<svg id="Layer_1" data-name="Layer 1" xmlns="http://www.w3.org/2000/svg" viewBox="0 0 403.85 374.92"><defs><style>.cls-1{fill:none;}</style></defs><title>Falco white tradmarkwhite</title><rect class="cls-1" width="403.85" height="374.92"/><g id="fqqZXT"><path class="cls-1" d="M270.8,167.09Q205.13,233.26,139.07,299a59.41,59.41,0,0,1-6.5,6c-3.16,2.34-6.6,2.53-9.45-.55s-1.86-6.18.51-8.72c5.67-6.1,11.54-12,17.45-17.9Q206,213.28,270.88,148.73c4.14-4.12,22.28,9.28,26.64,13.7"/><path class="cls-1" d="M283.6,188c-.18,2.64-1.9,4.37-3.61,6.09q-54.21,54.19-108.42,108.38c-3.39,3.39-7.4,6.7-11.69,2.08-3.88-4.18-.61-8,2.56-11.12q53.61-53.64,107.26-107.25c2.74-2.74,5.66-5.23,9.92-3.69A5.69,5.69,0,0,1,283.6,188Z"/><path class="cls-1" d="M105.67,64.11c3-.12,5,1.62,7,3.54q51.62,51.59,103.21,103.2c3.22,3.22,6.13,7.09,2.09,11.13s-7.91,1.19-11.14-2q-51.62-51.6-103.2-103.22c-2.59-2.58-4.6-5.42-3-9.3A5.35,5.35,0,0,1,105.67,64.11Z"/><path class="cls-1" d="M269.24,307.36c-6.2,1.21-11-1.65-15.38-6.22C246,293,238,285,229.91,277.1c-4.77-4.68-5-9.14-.18-13.92,13.75-13.67,27.42-27.42,41.17-41.09,3-3,6.71-5.55,10.56-1.91,4.29,4,1.47,7.9-1.72,11.12-10.79,10.92-21.53,21.9-32.59,32.54-4.2,4-4.85,7.06-.24,11.19,5.21,4.65,10,9.76,14.86,14.83,3.15,3.31,6.62,5.25,11.34,5.07s10.22-.14,10.07,6.29c-.14,6.23-5.85,5.93-10.37,6.35A23.84,23.84,0,0,1,269.24,307.36Z"/><path class="cls-1" d="M201.68,196.68c-.93,4.31-3.31,6.91-7.94,5.38a16.26,16.26,0,0,1-5.86-4.09q-37.15-37-74.18-74.12a28.81,28.81,0,0,1-3.17-3.64c-2.12-3-2.32-6.12.37-8.79s6-2.16,8.63.33c4.51,4.23,8.85,8.63,13.23,13q31.67,31.65,63.3,63.33C198.49,190.51,201.42,192.69,201.68,196.68Z"/><path class="cls-1" d="M183.22,214.66a6.08,6.08,0,0,1-3.14,5.3,6.63,6.63,0,0,1-8.18-1.17C167.76,215,163.79,211,159.8,207q-17.7-17.64-35.32-35.34a42.52,42.52,0,0,1-5.14-6.16,5.62,5.62,0,0,1,.44-7.42c2.08-2.29,4.78-2.47,7.4-1.39a14.6,14.6,0,0,1,4.58,3.19q24,23.86,47.88,47.85C181.56,209.63,183.25,211.71,183.22,214.66Z"/></g></svg>